<svg xmlns="http://www.w3.org/2000/svg" xmlns:xlink="http://www.w3.org/1999/xlink" viewBox="0 0 474.23 132.26"><defs><style>.cls-1{fill:#fff;}.cls-2{fill:url(#linear-gradient);}</style><linearGradient id="linear-gradient" y1="66.13" x2="132.26" y2="66.13" gradientUnits="userSpaceOnUse"><stop offset="0" stop-color="#167ed9"/><stop offset="0.23" stop-color="#1a9bbb"/><stop offset="0.57" stop-color="#20c193"/><stop offset="0.83" stop-color="#24d87b"/><stop offset="1" stop-color="#25e172"/></linearGradient></defs><g id="Layer_2" data-name="Layer 2"><g id="Layer_2-2" data-name="Layer 2"><path class="cls-1" d="M153.63,27.67h5.63a4.72,4.72,0,0,0,1.1,2.47,5.76,5.76,0,0,0,2.42,1.63,9.93,9.93,0,0,0,3.51.58,9.41,9.41,0,0,0,4.6-1,2.93,2.93,0,0,0,1.69-2.65,2.43,2.43,0,0,0-1-2.06A8.2,8.2,0,0,0,168,25.63L163.09,25c-3.19-.39-5.49-1.24-6.92-2.54A6.93,6.93,0,0,1,154,17a7.64,7.64,0,0,1,1.42-4.67,8.9,8.9,0,0,1,4-2.95,16.51,16.51,0,0,1,6.08-1,15.32,15.32,0,0,1,6.05,1.13,10.44,10.44,0,0,1,4.23,3.16,8.19,8.19,0,0,1,1.7,4.72h-5.63a3.94,3.94,0,0,0-1-2.13,5.3,5.3,0,0,0-2.2-1.41,10,10,0,0,0-3.31-.5,8.59,8.59,0,0,0-4.22.89,2.77,2.77,0,0,0-1.57,2.52,2.29,2.29,0,0,0,.93,1.95,7.59,7.59,0,0,0,3.29,1l5.14.7a19,19,0,0,1,5.41,1.32,6.07,6.07,0,0,1,2.88,2.43,7.67,7.67,0,0,1,.87,3.85,8.23,8.23,0,0,1-1.49,4.88,9.51,9.51,0,0,1-4.17,3.24,15.78,15.78,0,0,1-6.28,1.15,16.14,16.14,0,0,1-6.45-1.2,10.47,10.47,0,0,1-4.38-3.37A9,9,0,0,1,153.63,27.67Z"/><path class="cls-1" d="M188.28,22.85l-1.64,11.79-2.42-3.11h18.91v5.23H181.05L183,22.85,181.05,9H203v5.23H184.22l2.42-3.12Zm13.84-2.41v4.82H184.55V20.44Z"/><path class="cls-1" d="M205,9h25.06v5.56H205Zm9.79,2.82h5.52v25h-5.52Z"/><path class="cls-1" d="M238.44,24.56a8.91,8.91,0,0,0,.75,3.82,5.56,5.56,0,0,0,2.21,2.46,7.5,7.5,0,0,0,7,0,5.58,5.58,0,0,0,2.19-2.46,8.91,8.91,0,0,0,.75-3.82V9H257V24.86a13.67,13.67,0,0,1-1.51,6.54,10.8,10.8,0,0,1-4.22,4.36,13.6,13.6,0,0,1-12.61,0,10.93,10.93,0,0,1-4.22-4.36,13.44,13.44,0,0,1-1.52-6.54V9h5.56Z"/><path class="cls-1" d="M153.63,72.17h5.63a4.69,4.69,0,0,0,1.1,2.46,5.67,5.67,0,0,0,2.42,1.63,9.71,9.71,0,0,0,3.51.58,9.41,9.41,0,0,0,4.6-1,2.93,2.93,0,0,0,1.69-2.65,2.41,2.41,0,0,0-1-2A7.94,7.94,0,0,0,168,70.13l-4.94-.63c-3.19-.4-5.49-1.24-6.92-2.54A7,7,0,0,1,154,61.53a7.67,7.67,0,0,1,1.42-4.68,8.88,8.88,0,0,1,4-2.94,16.51,16.51,0,0,1,6.08-1A15.15,15.15,0,0,1,171.59,54a10.34,10.34,0,0,1,4.23,3.15,8.22,8.22,0,0,1,1.7,4.73h-5.63a3.94,3.94,0,0,0-1-2.14,5.19,5.19,0,0,0-2.2-1.4,9.73,9.73,0,0,0-3.31-.5,8.48,8.48,0,0,0-4.22.89,2.76,2.76,0,0,0-1.57,2.52,2.26,2.26,0,0,0,.93,1.94,7.59,7.59,0,0,0,3.29,1l5.14.71a19,19,0,0,1,5.41,1.31,6.07,6.07,0,0,1,2.88,2.43,7.71,7.71,0,0,1,.87,3.86,8.19,8.19,0,0,1-1.49,4.87,9.6,9.6,0,0,1-4.17,3.25,17.76,17.76,0,0,1-12.73-.06,10.47,10.47,0,0,1-4.38-3.37A9,9,0,0,1,153.63,72.17Z"/><path class="cls-1" d="M195.25,53.44a10.54,10.54,0,0,1,5,1.15,7.84,7.84,0,0,1,3.25,3.23,9.84,9.84,0,0,1,1.13,4.82,9.73,9.73,0,0,1-1.13,4.8,8,8,0,0,1-3.25,3.23,10.42,10.42,0,0,1-5,1.16H184.42V66.64H195a4.16,4.16,0,0,0,3-1.07,4.48,4.48,0,0,0,0-5.88,4.19,4.19,0,0,0-3-1.06H184.91l2.52-3V81.25h-5.56V53.44Z"/><path class="cls-1" d="M221,81.81A15,15,0,0,1,213.52,80a12.86,12.86,0,0,1-5-5.06,15.37,15.37,0,0,1-1.8-7.58,15.43,15.43,0,0,1,1.8-7.59,12.86,12.86,0,0,1,5-5.06,16.49,16.49,0,0,1,15,0,12.86,12.86,0,0,1,5,5.06,15.43,15.43,0,0,1,1.8,7.59,15.37,15.37,0,0,1-1.8,7.58,12.86,12.86,0,0,1-5,5.06A15,15,0,0,1,221,81.81Zm0-5.6a9.4,9.4,0,0,0,4.63-1.08,7.36,7.36,0,0,0,3-3.07,11,11,0,0,0,0-9.42,7.39,7.39,0,0,0-3-3.08,10.51,10.51,0,0,0-9.24,0,7.38,7.38,0,0,0-3,3.08,11,11,0,0,0,0,9.42,7.35,7.35,0,0,0,3,3.07A9.41,9.41,0,0,0,221,76.21Z"/><path class="cls-1" d="M243.05,65.79h9.46a4.3,4.3,0,0,0,3-1,3.49,3.49,0,0,0,1.09-2.73,3.4,3.4,0,0,0-1.09-2.7,4.29,4.29,0,0,0-3-1H242.23l2.52-3.22V81.25h-5.56V53.44h14a9.75,9.75,0,0,1,4.71,1.1,8,8,0,0,1,3.17,3,9.4,9.4,0,0,1,0,9,8.09,8.09,0,0,1-3.17,3,9.75,9.75,0,0,1-4.71,1.09H243.05Zm4.25,2.45h6.35l9.26,13H256.4Z"/><path class="cls-1" d="M263.6,53.44h25.06V59H263.6Zm9.78,2.82h5.53v25h-5.53Z"/><path class="cls-1" d="M289.77,72.17h5.63a4.68,4.68,0,0,0,1.09,2.46,5.7,5.7,0,0,0,2.43,1.63,9.71,9.71,0,0,0,3.51.58,9.44,9.44,0,0,0,4.6-1,2.92,2.92,0,0,0,1.68-2.65,2.41,2.41,0,0,0-1-2,7.94,7.94,0,0,0-3.58-1.06l-4.94-.63c-3.19-.4-5.49-1.24-6.92-2.54a7,7,0,0,1-2.15-5.43,7.68,7.68,0,0,1,1.43-4.68,8.91,8.91,0,0,1,4-2.94,16.6,16.6,0,0,1,6.09-1A15.15,15.15,0,0,1,307.73,54,10.24,10.24,0,0,1,312,57.17a8.16,8.16,0,0,1,1.71,4.73H308a3.94,3.94,0,0,0-1-2.14,5.17,5.17,0,0,0-2.21-1.4,9.67,9.67,0,0,0-3.3-.5,8.48,8.48,0,0,0-4.22.89,2.76,2.76,0,0,0-1.57,2.52,2.26,2.26,0,0,0,.93,1.94,7.59,7.59,0,0,0,3.29,1l5.14.71a19.09,19.09,0,0,1,5.41,1.31,6.07,6.07,0,0,1,2.88,2.43,7.71,7.71,0,0,1,.87,3.86,8.19,8.19,0,0,1-1.49,4.87,9.66,9.66,0,0,1-4.17,3.25,17.76,17.76,0,0,1-12.73-.06,10.47,10.47,0,0,1-4.38-3.37A9,9,0,0,1,289.77,72.17Z"/><path class="cls-1" d="M326.38,53.44h5.56V81.25h-5.56Z"/><path class="cls-1" d="M359.69,77.1l-1.93.33v-24h5.4V81.25h-7l-15.7-24,1.9-.33V81.25H337V53.44h7.2Z"/><path class="cls-1" d="M366.33,67.76h5.46v1.07a9.46,9.46,0,0,0,1.39,5.54q1.4,1.95,4.6,1.95t4.6-1.87a8.36,8.36,0,0,0,1.42-5.17V53.44h5.56V69.57a14.12,14.12,0,0,1-1.45,6.68,9.79,9.79,0,0,1-4.08,4.15,12.54,12.54,0,0,1-6.05,1.41,12,12,0,0,1-6-1.45,9.84,9.84,0,0,1-4-4.24,15,15,0,0,1-1.43-6.84Z"/><path class="cls-1" d="M399.31,69.05a8.88,8.88,0,0,0,.75,3.82,5.59,5.59,0,0,0,2.21,2.47,7.58,7.58,0,0,0,7.05,0,5.61,5.61,0,0,0,2.19-2.47,8.73,8.73,0,0,0,.76-3.82V53.44h5.56V69.35a13.5,13.5,0,0,1-1.51,6.54,10.8,10.8,0,0,1-4.22,4.36,13.52,13.52,0,0,1-12.61,0,10.93,10.93,0,0,1-4.22-4.36,13.5,13.5,0,0,1-1.52-6.54V53.44h5.56Z"/><path class="cls-1" d="M426.4,65.79h9.46a4.3,4.3,0,0,0,3-1,3.49,3.49,0,0,0,1.09-2.73,3.4,3.4,0,0,0-1.09-2.7,4.29,4.29,0,0,0-3-1H425.58l2.52-3.22V81.25h-5.56V53.44h14a9.75,9.75,0,0,1,4.71,1.1,8.11,8.11,0,0,1,3.18,3,9.47,9.47,0,0,1,0,9,8.18,8.18,0,0,1-3.18,3,9.75,9.75,0,0,1-4.71,1.09H426.4Zm4.25,2.45H437l9.26,13h-6.51Z"/><path class="cls-1" d="M445.64,53.44h6.18L461.28,67h-2.69l9.46-13.54h6.18l-12.5,17.91-3.56,0Zm11.55,27.81V67.83h5.56V81.25Z"/><path class="cls-1" d="M190.7,97.94v25l-2.52-2.79H206.6v5.57H185.14V97.94Z"/><path class="cls-1" d="M209.71,97.94h5.56v27.81h-5.56Z"/><path class="cls-1" d="M243,121.59l-1.93.34v-24h5.4v27.81h-7l-15.7-24,1.89-.34v24.33h-5.36V97.94h7.2Z"/><path class="cls-1" d="M251.49,97.94h5.56v27.81h-5.56Z"/><path class="cls-1" d="M282.32,116.71a7.15,7.15,0,0,1-.7,1.16,7,7,0,0,1-2.78,2.19,9.71,9.71,0,0,1-4,.75,8.7,8.7,0,0,1-4.46-1.09,7.33,7.33,0,0,1-2.9-3.11,11.75,11.75,0,0,1,0-9.53,7.3,7.3,0,0,1,2.9-3.12,8.7,8.7,0,0,1,4.46-1.09,9.39,9.39,0,0,1,4,.78,7.12,7.12,0,0,1,2.78,2.2,7.45,7.45,0,0,1,.64,1h5.94a12.6,12.6,0,0,0-1.75-3.87,12.36,12.36,0,0,0-4.78-4.16,15,15,0,0,0-6.75-1.48,14.49,14.49,0,0,0-7.35,1.82,12.81,12.81,0,0,0-4.92,5.06,17.12,17.12,0,0,0,0,15.16,12.83,12.83,0,0,0,4.92,5.07,14.49,14.49,0,0,0,7.35,1.81,14.83,14.83,0,0,0,6.75-1.48,12.3,12.3,0,0,0,4.78-4.17,12.75,12.75,0,0,0,1.76-3.94Z"/><path class="cls-1" d="M175.4,116.71a7.15,7.15,0,0,1-.7,1.16,7,7,0,0,1-2.78,2.19,9.71,9.71,0,0,1-4,.75,8.7,8.7,0,0,1-4.46-1.09,7.33,7.33,0,0,1-2.9-3.11,11.75,11.75,0,0,1,0-9.53,7.3,7.3,0,0,1,2.9-3.12,8.7,8.7,0,0,1,4.46-1.09,9.39,9.39,0,0,1,4,.78,7.12,7.12,0,0,1,2.78,2.2,7.45,7.45,0,0,1,.64,1h5.94a12.6,12.6,0,0,0-1.75-3.87,12.36,12.36,0,0,0-4.78-4.16A15,15,0,0,0,168,97.38a14.52,14.52,0,0,0-7.35,1.82,12.81,12.81,0,0,0-4.92,5.06,17.12,17.12,0,0,0,0,15.16,12.83,12.83,0,0,0,4.92,5.07A14.51,14.51,0,0,0,168,126.3a14.83,14.83,0,0,0,6.75-1.48,12.3,12.3,0,0,0,4.78-4.17,12.75,12.75,0,0,0,1.76-3.94Z"/><path class="cls-2" d="M66.13,0a66.13,66.13,0,1,0,66.13,66.13A66.13,66.13,0,0,0,66.13,0ZM80,12.25a8.1,8.1,0,1,1-6.63,9.34A8.08,8.08,0,0,1,80,12.25ZM33.9,114.1l-1.2-.81a9.69,9.69,0,0,1-2.64-13.46l6.5-8.93,14.52-2.38ZM86.07,78.9,39.59,86.52,50.32,71.58l23.31-3.82L59.32,57.63a.61.61,0,0,1-.15-.86l6.09-8.59L88.63,64.73A8.09,8.09,0,0,1,91,75.36,6.77,6.77,0,0,1,86.07,78.9ZM99.14,49.15,86.66,51a7.1,7.1,0,0,1-1,.15,5.73,5.73,0,0,1-1.24,0,8.66,8.66,0,0,1-4.29-1.4l-19-12.43L46,55.43a.63.63,0,0,1-.89.08h0A10.52,10.52,0,0,1,43.78,40.7L54.11,28.28A8.42,8.42,0,0,1,66,27.2l.09.08L85.39,39.91l20.66-3a.69.69,0,0,1,.78.58l.16,1.13A9.31,9.31,0,0,1,99.14,49.15Z"/></g></g></svg>